<svg xmlns="http://www.w3.org/2000/svg" width="78" height="104" viewBox="0 0 78 104">
  <g id="Piezométrie" transform="translate(-1279 -1306.961)">
    <g id="Groupe_127" data-name="Groupe 127" transform="translate(930.662 1190.314)">
      <g id="Calque_2" data-name="Calque 2" transform="translate(349.338 117.686)">
        <path id="Tracé_83" data-name="Tracé 83" d="M349.338,141.025V182.36a2.673,2.673,0,0,0,1.335,2.314l35.8,20.667a2.67,2.67,0,0,0,2.671,0l35.8-20.667a2.671,2.671,0,0,0,1.336-2.314V141.025a2.671,2.671,0,0,0-1.336-2.314l-35.8-20.667a2.663,2.663,0,0,0-2.671,0l-35.8,20.667A2.673,2.673,0,0,0,349.338,141.025Z" transform="translate(-349.338 -117.686)" fill="#fff" stroke="#5cb15d" stroke-width="2"/>
        <g id="Groupe_123" data-name="Groupe 123" transform="translate(22.204 70.272)">
          <circle id="Ellipse_37" data-name="Ellipse 37" cx="16.264" cy="16.264" r="16.264" fill="#fff" stroke="#5cb15d" stroke-miterlimit="10" stroke-width="2"/>
          <g id="Groupe_122" data-name="Groupe 122" transform="translate(7.484 9.561)">
            <g id="Groupe_121" data-name="Groupe 121" transform="translate(0 3.95)">
              <path id="Tracé_84" data-name="Tracé 84" d="M385.822,176.431c-1.7,1.463-3.05,2.62-6.7.557-4.827-2.727-7.088-.785-8.9.775a1.011,1.011,0,0,0-.119,1.4.963.963,0,0,0,1.375.121c1.7-1.465,3.05-2.622,6.7-.558a8.926,8.926,0,0,0,4.349,1.367,6.793,6.793,0,0,0,4.555-2.142,1.01,1.01,0,0,0,.119-1.4A.961.961,0,0,0,385.822,176.431Zm0,4.98c-1.7,1.465-3.05,2.62-6.7.557-4.827-2.726-7.088-.784-8.9.777a1.01,1.01,0,0,0-.119,1.4.963.963,0,0,0,1.375.121c1.7-1.463,3.05-2.62,6.7-.557a8.923,8.923,0,0,0,4.349,1.365,6.8,6.8,0,0,0,4.555-2.14,1.012,1.012,0,0,0,.119-1.4A.963.963,0,0,0,385.822,181.411Z" transform="translate(-369.868 -175.622)" fill="#5cb15d"/>
            </g>
            <rect id="Rectangle_41" data-name="Rectangle 41" width="17.558" height="2.075" rx="0.717" transform="translate(0)" fill="#5cb15d"/>
          </g>
        </g>
      </g>
      <g id="Calque_3" data-name="Calque 3" transform="translate(378.741 141.056)">
        <path id="Tracé_106" data-name="Tracé 106" d="M229.189,159.963V136.276l6.326,6.805,1.654-1.54-9.237-9.933-9.234,9.933,1.654,1.54,6.328-6.809v23.694l-6.328-6.809L218.7,154.7l9.234,9.933,9.237-9.933-1.654-1.54Z" transform="translate(-218.698 -131.609)" fill="#5cb15d" stroke="#5cb15d" stroke-miterlimit="10" stroke-width="1"/>
      </g>
    </g>
  </g>
</svg>
